#!OML:ASF I:\Actors\actors\Patient Classification 2\Patient 1\Session 1\actor1.ASF
:FULLY-SPECIFIED
:DEGREES
358
root -0.737704 17.7758 6.11582 -6.97594 8.43393 -4.70974
lowerback 10.5199 2.02059 4.92279
upperback 1.03709 3.36342 1.97464
thorax -4.64997 1.58632 -1.18204
lowerneck -15.7748 -7.80499 -3.63219
upperneck -17.4318 -8.85392 9.07544
head -2.46043 -4.25718 3.36683
rclavicle 6.12692e-014 1.74931e-014
rhumerus 29.6869 4.48139 -56.5616
rradius 75.4576
rwrist 1.27237
rhand -21.5258 -27.5851
rfingers 7.12502
rthumb 4.86668 -57.5092
lclavicle 6.12692e-014 1.74931e-014
lhumerus -28.6492 -32.0384 96.2082
lradius 109.199
lwrist 23.0292
lhand -16.7326 -35.7489
lfingers 7.12502
lthumb 9.49337 -5.98276
rfemur 3.67072 -7.52882 17.2553
rtibia 30.8026
rfoot -28.1537 -3.29734
rtoes -24.6614
lfemur -10.8656 -3.36895 -8.4254
ltibia 44.8458
lfoot -25.563 -2.73185
ltoes -59.1919
359
root -0.740898 17.7419 6.14118 -6.74886 8.4385 -4.79991
lowerback 9.84828 1.9106 4.76132
upperback 0.890107 3.15979 1.94295
thorax -4.4467 1.49212 -1.07281
lowerneck -15.8917 -7.51432 -3.48999
upperneck -18.0095 -8.46896 8.81037
head -2.69221 -4.07143 3.2929
rclavicle 1.97247e-014 2.68359e-014
rhumerus 30.4563 4.15609 -55.9727
rradius 77.1293
rwrist 1.87061
rhand -21.7459 -27.3727
rfingers 7.12502
rthumb 4.65411 -57.3016
lclavicle 1.97247e-014 2.68359e-014
lhumerus -23.9496 -33.5473 94.197
lradius 112.421
lwrist 22.9906
lhand -17.2183 -36.1589
lfingers 7.12502
lthumb 9.02472 -6.37199
rfemur 3.18622 -7.45653 17.4035
rtibia 31.3835
rfoot -28.3316 -3.22606
rtoes -24.7976
lfemur -11.2514 -3.57804 -8.32575
ltibia 45.2301
lfoot -25.8439 -2.56999
ltoes -59.2915
360
root -0.741271 17.7227 6.17428 -6.59444 8.3752 -4.85508
lowerback 9.11242 1.82788 4.58327
upperback 0.767198 2.98676 1.89177
thorax -4.17877 1.41457 -0.978216
lowerneck -15.9318 -7.25352 -3.3046
upperneck -18.5709 -8.13826 8.52243
head -2.93021 -3.91614 3.20233
rclavicle 4.26855e-014 1.23246e-014
rhumerus 31.003 3.73406 -55.8417
rradius 78.3016
rwrist 2.39119
rhand -22.3175 -27.1274
rfingers 7.12502
rthumb 4.10218 -57.0677
lclavicle 4.26855e-014 1.23246e-014
lhumerus -19.0665 -34.9082 91.9961
lradius 115.337
lwrist 23.0188
lhand -17.537 -36.4228
lfingers 7.12502
lthumb 8.71714 -6.62285
rfemur 2.89079 -7.5198 17.4843
rtibia 31.7771
rfoot -28.3603 -3.33631
rtoes -25.6222
lfemur -11.3555 -3.70187 -8.28118
ltibia 45.3499
lfoot -26.0807 -2.36585
ltoes -59.306
361
root -0.741113 17.7246 6.21733 -6.67849 8.27565 -4.77654
lowerback 8.53031 1.75754 4.26391
upperback 0.655349 2.8268 1.79986
thorax -3.98783 1.3434 -0.856925
lowerneck -15.9829 -7.03458 -3.18105
upperneck -18.8771 -7.86172 8.33376
head -3.06386 -3.78343 3.14086
rclavicle -5.71987e-014 -2.99171e-014
rhumerus 31.3403 3.38675 -55.8532
rradius 79.4559
rwrist 2.68732
rhand -22.712 -27.5528
rfingers 7.12502
rthumb 3.72118 -57.5
lclavicle -5.71987e-014 -2.99171e-014
lhumerus -14.4485 -35.9923 89.8891
lradius 117.973
lwrist 23.1856
lhand -17.6337 -36.6198
lfingers 7.12502
lthumb 8.62386 -6.8159
rfemur 3.12935 -7.56125 17.3869
rtibia 31.7853
rfoot -28.3669 -3.48144
rtoes -26.5426
lfemur -10.9295 -3.72846 -8.38806
ltibia 45.1232
lfoot -26.214 -2.23805
ltoes -59.3158
362
root -0.7426 17.7469 6.26623 -6.97734 8.17572 -4.5752
lowerback 8.15666 1.67479 3.75309
upperback 0.535764 2.64941 1.72054
thorax -3.92978 1.26381 -0.623326
lowerneck -16.0868 -6.87992 -3.35057
upperneck -18.9289 -7.62598 8.35087
head -3.0738 -3.65349 3.18532
rclavicle -1.13424e-014 1.4064e-014
rhumerus 31.5295 3.15714 -56.1936
rradius 80.4172
rwrist 3.21035
rhand -22.9902 -28.0668
rfingers 7.12502
rthumb 3.45252 -58.0186
lclavicle -1.13424e-014 1.4064e-014
lhumerus -10.3539 -36.6968 88.25
lradius 120.238
lwrist 23.3687
lhand -17.3879 -37.0809
lfingers 7.12502
lthumb 8.86101 -7.28699
rfemur 3.88186 -7.46092 17.1462
rtibia 31.326
rfoot -28.2574 -3.56485
rtoes -26.4622
lfemur -10.0433 -3.69718 -8.61077
ltibia 44.5564
lfoot -26.1861 -2.27839
ltoes -59.2552
363
root -0.746015 17.7807 6.31854 -7.4019 8.07654 -4.37135
lowerback 7.93079 1.583 3.16352
upperback 0.409949 2.4683 1.74324
thorax -3.96612 1.18319 -0.245654
lowerneck -16.2224 -6.78091 -3.9142
upperneck -18.9157 -7.40696 8.45717
head -3.03692 -3.50735 3.32593
rclavicle -6.77545e-014 -2.96189e-014
rhumerus 31.6361 3.06427 -56.6236
rradius 81.2169
rwrist 3.85396
rhand -23.296 -28.1702
rfingers 7.12502
rthumb 3.15721 -58.1265
lclavicle -6.77545e-014 -2.96189e-014
lhumerus -6.56929 -37.2011 87.0499
lradius 122.196
lwrist 23.8833
lhand -16.8361 -37.5475
lfingers 7.12502
lthumb 9.39349 -7.77685
rfemur 4.98185 -7.1975 16.9338
rtibia 30.4516
rfoot -28.0136 -3.71254
rtoes -25.7495
lfemur -8.88026 -3.64533 -8.81159
ltibia 43.7294
lfoot -26.0306 -2.35195
ltoes -59.2445
364
root -0.750771 17.8214 6.37347 -7.82511 7.96497 -4.24939
lowerback 7.72679 1.53151 2.65409
upperback 0.235572 2.35309 1.78098
thorax -4.05775 1.13367 0.0940557
lowerneck -16.3152 -6.64129 -4.39859
upperneck -18.9391 -7.16377 8.34112
head -3.03553 -3.35069 3.38069
rclavicle 5.46503e-015 1.44616e-014
rhumerus 31.5554 2.94912 -57.0327
rradius 82.0034
rwrist 4.54017
rhand -23.5736 -28.338
rfingers 7.12502
rthumb 2.88919 -58.2982
lclavicle 5.46503e-015 1.44616e-014
lhumerus -3.01396 -37.9003 85.999
lradius 123.952
lwrist 24.9765
lhand -16.4454 -37.8474
lfingers 7.12502
lthumb 9.77045 -8.09405
rfemur 6.20385 -6.85485 16.8543
rtibia 29.3031
rfoot -27.68 -3.97014
rtoes -25.1095
lfemur -7.66453 -3.58833 -8.91418
ltibia 42.7623
lfoot -25.7907 -2.32599
ltoes -59.3573
365
root -0.755431 17.8659 6.42875 -8.17596 7.84853 -4.20139
lowerback 7.52738 1.55638 2.31788
upperback -0.0543389 2.35223 1.65522
thorax -4.25514 1.135 0.15347
lowerneck -16.1796 -6.39306 -4.35812
upperneck -19.0707 -6.88222 7.87566
head -3.144 -3.20549 3.2339
rclavicle 2.86219e-014 1.78409e-014
rhumerus 31.1209 2.58432 -57.5969
rradius 82.7731
rwrist 5.38097
rhand -23.7522 -28.6993
rfingers 7.12502
rthumb 2.71669 -58.6618
lclavicle 2.86219e-014 1.78409e-014
lhumerus 0.261474 -39.105 84.8852
lradius 125.576
lwrist 26.7383
lhand -16.2967 -37.9695
lfingers 7.12502
lthumb 9.91394 -8.22294
rfemur 7.40305 -6.49938 16.8799
rtibia 28.0149
rfoot -27.2047 -4.25858
rtoes -24.4897
lfemur -6.53732 -3.55118 -8.94001
ltibia 41.7743
lfoot -25.4617 -2.28828
ltoes -59.373
366
root -0.758685 17.9095 6.48318 -8.41078 7.72702 -4.18836
lowerback 7.25713 1.58286 2.09015
upperback -0.371281 2.35822 1.45931
thorax -4.43331 1.13754 0.0806397
lowerneck -16.43 -6.22769 -4.16703
upperneck -18.9644 -6.73082 7.34694
head -3.10137 -3.12527 3.00945
rclavicle 2.49847e-014 9.93923e-016
rhumerus 30.7998 2.10682 -58.0166
rradius 83.4364
rwrist 6.17296
rhand -23.9875 -28.992
rfingers 7.12502
rthumb 2.48948 -58.9573
lclavicle 2.49847e-014 9.93923e-016
lhumerus 3.59948 -40.4416 83.5285
lradius 127.169
lwrist 29.2645
lhand -16.3702 -37.3041
lfingers 7.12502
lthumb 9.84301 -7.55418
rfemur 8.48905 -6.08256 16.9695
rtibia 26.6771
rfoot -26.6917 -4.56575
rtoes -23.7202
lfemur -5.57618 -3.49641 -8.93381
ltibia 40.8488
lfoot -25.1141 -2.18995
ltoes -59.4992
367
root -0.761618 17.9487 6.53412 -8.56027 7.57134 -4.24545
lowerback 6.91174 1.55459 1.94397
upperback -0.65735 2.30092 1.38094
thorax -4.53941 1.10963 0.09337
lowerneck -16.7019 -6.06605 -4.39859
upperneck -18.9307 -6.51286 6.94927
head -3.06778 -2.9889 2.91184
rclavicle 1.10822e-014 -1.68967e-014
rhumerus 30.7624 1.71606 -58.1885
rradius 84.097
rwrist 6.94377
rhand -24.4667 -29.0546
rfingers 7.12502
rthumb 2.02666 -59.0247
lclavicle 1.10822e-014 -1.68967e-014
lhumerus 7.10837 -41.4817 82.0248
lradius 128.72
lwrist 32.3962
lhand -16.7016 -36.065
lfingers 7.12502
lthumb 9.52324 -6.30017
rfemur 9.43812 -5.5997 17.1703
rtibia 25.3623
rfoot -26.2793 -4.93726
rtoes -23.063
lfemur -4.78051 -3.47434 -8.86475
ltibia 40.0482
lfoot -24.8487 -1.98944
ltoes -59.661
368
root -0.762977 17.9793 6.57832 -8.78529 7.37424 -4.33349
lowerback 6.71871 1.55064 1.90254
upperback -0.946878 2.29115 1.3295
thorax -4.73162 1.10229 0.0655994
lowerneck -16.9542 -5.91607 -4.71684
upperneck -18.8134 -6.30279 6.53101
head -3.00454 -2.85195 2.8202
rclavicle -5.55603e-014 8.15017e-015
rhumerus 30.8279 1.19501 -58.4903
rradius 84.7891
rwrist 7.86625
rhand -24.8431 -28.7798
rfingers 7.12502
rthumb 1.66311 -58.753
lclavicle -5.55603e-014 8.15017e-015
lhumerus 10.6943 -42.4238 80.4375
lradius 130.124
lwrist 35.8788
lhand -16.8829 -35.0704
lfingers 7.12502
lthumb 9.34831 -5.29772
rfemur 10.3827 -5.14356 17.392
rtibia 24.1565
rfoot -25.907 -5.3511
rtoes -22.9426
lfemur -4.00495 -3.51957 -8.79531
ltibia 39.4235
lfoot -24.6821 -1.74702
ltoes -59.5981
369
root -0.761801 17.9978 6.61625 -9.09828 7.22093 -4.32331
lowerback 6.69112 1.57665 1.81898
upperback -1.2166 2.31951 1.22723
thorax -4.99612 1.11358 -8.14309e-006
lowerneck -17.2473 -5.7695 -4.95959
upperneck -18.5188 -6.12281 5.96309
head -2.87628 -2.73375 2.65587
rclavicle 3.04389e-014 1.55052e-014
rhumerus 31.3336 0.531533 -58.7045
rradius 85.4143
rwrist 8.58869
rhand -24.9869 -28.6267
rfingers 7.12502
rthumb 1.52426 -58.601
lclavicle 3.04389e-014 1.55052e-014
lhumerus 14.4627 -43.2193 78.7096
lradius 131.414
lwrist 39.5235
lhand -16.7857 -33.6983
lfingers 7.12502
lthumb 9.44217 -3.9298
rfemur 11.3284 -4.8034 17.4518
rtibia 23.149
rfoot -25.5907 -5.72546
rtoes -23.4299
lfemur -3.26407 -3.67008 -8.89402
ltibia 39.0106
lfoot -24.6796 -1.40051
ltoes -59.5294
370
root -0.762256 18.0022 6.649 -9.40026 7.13835 -4.27601
lowerback 6.71929 1.54621 1.65843
upperback -1.44943 2.26555 1.11687
thorax -5.25763 1.08666 -0.0232598
lowerneck -17.3735 -5.5496 -5.26101
upperneck -18.4458 -5.82508 5.5334
head -2.8546 -2.55895 2.56862
rclavicle 1.16786e-014 1.19271e-015
rhumerus 31.6352 -0.110293 -58.6555
rradius 86.0279
rwrist 8.97494
rhand -25.5685 -28.224
rfingers 7.12502
rthumb 0.962529 -58.2016
lclavicle 1.16786e-014 1.19271e-015
lhumerus 18.3962 -43.6033 76.7992
lradius 132.673
lwrist 43.1839
lhand -16.8238 -31.476
lfingers 7.12502
lthumb 9.40539 -1.70582
rfemur 12.1347 -4.61441 17.4379
rtibia 22.419
rfoot -25.5042 -5.95826
rtoes -23.7654
lfemur -2.68833 -3.93639 -9.06314
ltibia 38.8214
lfoot -24.8218 -1.00895
ltoes -59.5331
371
root -0.765239 17.9923 6.67556 -9.66052 7.10452 -4.29532
lowerback 6.80043 1.47305 1.56201
upperback -1.66263 2.15993 1.00324
thorax -5.52718 1.03243 -0.0810723
lowerneck -17.5996 -5.33067 -5.28739
upperneck -18.3456 -5.58441 4.88736
head -2.81743 -2.42681 2.35357
rclavicle -3.70236e-014 -1.98785e-014
rhumerus 32.2833 -0.860783 -58.5349
rradius 86.5088
rwrist 9.26768
rhand -26.2888 -28.0463
rfingers 7.12502
rthumb 0.266817 -58.0259
lclavicle -3.70236e-014 -1.98785e-014
lhumerus 22.4017 -43.6746 74.7646
lradius 133.89
lwrist 47.0683
lhand -17.1685 -29.1935
lfingers 7.12502
lthumb 9.07275 0.59137
rfemur 12.7121 -4.50169 17.5151
rtibia 22.0358
rfoot -25.6622 -6.0617
rtoes -23.4084
lfemur -2.32064 -4.24902 -9.15356
ltibia 38.8531
lfoot -25.0076 -0.667238
ltoes -59.5496
